<svg class="w-20 h-20" width="20" height="23" viewBox="0 0 20 23" fill="none" xmlns="http://www.w3.org/2000/svg">
	<path
		d="M9.99995 5.54928C11.5323 5.54928 12.7746 4.30703 12.7746 2.77464C12.7746 1.24225 11.5323 0 9.99995 0C8.46756 0 7.22531 1.24225 7.22531 2.77464C7.22531 4.30703 8.46756 5.54928 9.99995 5.54928Z"
		fill="currentColor"
	></path>
	<path
		d="M19.628 5.55861C18.8616 4.2316 17.1646 3.77691 15.8375 4.54307C15.4412 4.77198 15.1516 5.0979 14.9204 5.45813C13.192 8.0848 11.86 9.67513 10 11.1172C12.1788 10.2278 14.2224 9.86922 17.3613 9.68575C17.789 9.66545 18.2159 9.57779 18.6123 9.34905C19.9393 8.58272 20.3939 6.8858 19.628 5.55861Z"
		fill="currentColor"
	></path>
	<path
		d="M0.372123 5.55809C-0.393949 6.88528 0.0608186 8.58229 1.38783 9.34844C1.78425 9.57719 2.21132 9.6651 2.63891 9.68523C5.77786 9.8687 7.82108 10.2271 10 11.1168C8.14037 9.6747 6.80801 8.0842 5.07974 5.45744C4.84836 5.09721 4.55897 4.77138 4.16264 4.54247C2.83538 3.77648 1.13853 4.23116 0.372123 5.55809Z"
		fill="currentColor"
	></path>
	<path
		d="M0.372039 16.6758C1.13837 18.0028 2.83538 18.4575 4.16248 17.6914C4.5588 17.4624 4.84845 17.1365 5.07966 16.7763C6.80801 14.1496 8.14003 12.5593 9.99996 11.1172C7.82117 12.0066 5.77761 12.3652 2.63866 12.5487C2.21098 12.569 1.78408 12.6566 1.38775 12.8854C0.0607349 13.6518 -0.393948 15.3486 0.372039 16.6758Z"
		fill="currentColor"
	></path>
	<path
		d="M9.99989 22.2345C11.5323 22.2344 12.7746 20.992 12.7746 19.4597C12.7745 19.002 12.6371 18.5882 12.4407 18.2079C11.0301 15.3977 10.3189 13.449 9.99997 11.1172C9.68085 13.4488 8.96965 15.3978 7.55897 18.208C7.36268 18.5884 7.22516 19.0021 7.22516 19.4596C7.22533 20.992 8.46757 22.2343 9.99989 22.2345Z"
		fill="currentColor"
	></path>
	<path
		d="M19.6279 16.6759C20.3939 15.3487 19.9392 13.6517 18.6122 12.8855C18.2158 12.6568 17.7887 12.5689 17.3611 12.5488C14.2221 12.3653 12.1789 12.0069 9.99995 11.1172C11.8596 12.5593 13.192 14.1498 14.9203 16.7766C15.1516 17.1368 15.441 17.4626 15.8374 17.6915C17.1645 18.4575 18.8615 18.0028 19.6279 16.6759Z"
		fill="currentColor"
	></path>
</svg>
